<?xml version="1.0" encoding="UTF-8"?>
<svg width="700pt" height="700pt" version="1.1" viewBox="0 0 700 700" xmlns="http://www.w3.org/2000/svg" xmlns:xlink="http://www.w3.org/1999/xlink">
 <defs>
  <symbol id="p" overflow="visible">
   <path d="m29.312-1.75c-1.5117 0.78125-3.0898 1.3711-4.7344 1.7656-1.6367 0.40625-3.3398 0.60938-5.1094 0.60938-5.3125 0-9.5273-1.4844-12.641-4.4531-3.1055-2.9688-4.6562-7-4.6562-12.094s1.5508-9.125 4.6562-12.094c3.1133-2.9688 7.3281-4.4531 12.641-4.4531 1.7695 0 3.4727 0.19922 5.1094 0.59375 1.6445 0.39844 3.2227 0.99219 4.7344 1.7812v6.5938c-1.5312-1.0391-3.0391-1.8008-4.5156-2.2812-1.4805-0.48828-3.0391-0.73438-4.6719-0.73438-2.9375 0-5.2461 0.94531-6.9219 2.8281-1.6797 1.875-2.5156 4.4648-2.5156 7.7656 0 3.293 0.83594 5.8828 2.5156 7.7656 1.6758 1.875 3.9844 2.8125 6.9219 2.8125 1.6328 0 3.1914-0.23828 4.6719-0.71875 1.4766-0.48828 2.9844-1.2539 4.5156-2.2969z"/>
  </symbol>
  <symbol id="h" overflow="visible">
   <path d="m21.453-17.406c-0.67969-0.3125-1.3516-0.53906-2.0156-0.6875-0.65625-0.15625-1.3203-0.23438-1.9844-0.23438-1.9688 0-3.4844 0.63281-4.5469 1.8906-1.0547 1.2617-1.5781 3.0703-1.5781 5.4219v11.016h-7.6562v-23.922h7.6562v3.9219c0.97656-1.5625 2.1016-2.7031 3.375-3.4219 1.2812-0.71875 2.8125-1.0781 4.5938-1.0781 0.25 0 0.52344 0.011719 0.82812 0.03125 0.30078 0.023438 0.73438 0.070312 1.2969 0.14062z"/>
  </symbol>
  <symbol id="b" overflow="visible">
   <path d="m27.562-12.031v2.1875h-17.891c0.1875 1.793 0.83203 3.1367 1.9375 4.0312 1.1133 0.89844 2.6719 1.3438 4.6719 1.3438 1.6016 0 3.25-0.23438 4.9375-0.70312 1.6875-0.47656 3.4219-1.2031 5.2031-2.1719v5.8906c-1.8047 0.6875-3.6094 1.2031-5.4219 1.5469-1.8125 0.35156-3.6211 0.53125-5.4219 0.53125-4.3359 0-7.7031-1.0977-10.109-3.2969-2.3984-2.207-3.5938-5.2969-3.5938-9.2656 0-3.9062 1.1758-6.9727 3.5312-9.2031 2.3633-2.2383 5.6094-3.3594 9.7344-3.3594 3.7578 0 6.7695 1.1367 9.0312 3.4062 2.2578 2.2617 3.3906 5.2812 3.3906 9.0625zm-7.8594-2.5312c0-1.457-0.42969-2.6289-1.2812-3.5156-0.84375-0.89453-1.9492-1.3438-3.3125-1.3438-1.4922 0-2.6992 0.41797-3.625 1.25-0.91797 0.83594-1.4922 2.0391-1.7188 3.6094z"/>
  </symbol>
  <symbol id="a" overflow="visible">
   <path d="m14.391-10.766c-1.5938 0-2.793 0.27344-3.5938 0.8125-0.80469 0.54297-1.2031 1.3398-1.2031 2.3906 0 0.96875 0.32031 1.7305 0.96875 2.2812 0.64453 0.54297 1.5469 0.8125 2.7031 0.8125 1.4375 0 2.6445-0.51562 3.625-1.5469 0.98828-1.0312 1.4844-2.3203 1.4844-3.875v-0.875zm11.688-2.8906v13.656h-7.7031v-3.5469c-1.0312 1.4492-2.1875 2.5078-3.4688 3.1719s-2.8398 1-4.6719 1c-2.4805 0-4.4961-0.72266-6.0469-2.1719-1.543-1.4453-2.3125-3.3203-2.3125-5.625 0-2.8125 0.96094-4.8672 2.8906-6.1719 1.9375-1.3125 4.9688-1.9688 9.0938-1.9688h4.5156v-0.60938c0-1.207-0.48047-2.0938-1.4375-2.6562-0.94922-0.5625-2.4375-0.84375-4.4688-0.84375-1.6367 0-3.1562 0.16797-4.5625 0.5-1.4062 0.32422-2.7188 0.8125-3.9375 1.4688v-5.8281c1.6445-0.40625 3.2891-0.70703 4.9375-0.90625 1.6562-0.20703 3.3047-0.3125 4.9531-0.3125 4.3203 0 7.4375 0.85547 9.3438 2.5625 1.9141 1.6992 2.875 4.4609 2.875 8.2812z"/>
  </symbol>
  <symbol id="d" overflow="visible">
   <path d="m12.031-30.719v6.7969h7.875v5.4688h-7.875v10.141c0 1.1172 0.21875 1.8711 0.65625 2.2656 0.4375 0.38672 1.3125 0.57812 2.625 0.57812h3.9375v5.4688h-6.5625c-3.0234 0-5.1641-0.62891-6.4219-1.8906-1.2617-1.2578-1.8906-3.3984-1.8906-6.4219v-10.141h-3.7969v-5.4688h3.7969v-6.7969z"/>
  </symbol>
  <symbol id="g" overflow="visible">
   <path d="m19.953-20.422v-12.812h7.6875v33.234h-7.6875v-3.4531c-1.0547 1.4062-2.2148 2.4375-3.4844 3.0938-1.2734 0.65625-2.7422 0.98438-4.4062 0.98438-2.9492 0-5.3711-1.1719-7.2656-3.5156-1.8867-2.3438-2.8281-5.3594-2.8281-9.0469s0.94141-6.7031 2.8281-9.0469c1.8945-2.3438 4.3164-3.5156 7.2656-3.5156 1.6562 0 3.1172 0.33594 4.3906 1 1.2812 0.65625 2.4453 1.6836 3.5 3.0781zm-5.0469 15.484c1.6445 0 2.8945-0.59766 3.75-1.7969 0.86328-1.1953 1.2969-2.9297 1.2969-5.2031 0-2.2812-0.43359-4.0195-1.2969-5.2188-0.85547-1.1953-2.1055-1.7969-3.75-1.7969-1.625 0-2.8711 0.60156-3.7344 1.7969-0.85547 1.1992-1.2812 2.9375-1.2812 5.2188 0 2.2734 0.42578 4.0078 1.2812 5.2031 0.86328 1.1992 2.1094 1.7969 3.7344 1.7969z"/>
  </symbol>
  <symbol id="f" overflow="visible">
   <path d="m16.406-4.9375c1.6328 0 2.8828-0.59766 3.75-1.7969 0.86328-1.1953 1.2969-2.9297 1.2969-5.2031 0-2.2812-0.43359-4.0195-1.2969-5.2188-0.86719-1.1953-2.1172-1.7969-3.75-1.7969-1.6367 0-2.8906 0.60547-3.7656 1.8125-0.875 1.1992-1.3125 2.9336-1.3125 5.2031 0 2.2617 0.4375 3.9961 1.3125 5.2031 0.875 1.1992 2.1289 1.7969 3.7656 1.7969zm-5.0781-15.484c1.0508-1.3945 2.2188-2.4219 3.5-3.0781 1.2812-0.66406 2.7539-1 4.4219-1 2.9453 0 5.3672 1.1719 7.2656 3.5156 1.8945 2.3438 2.8438 5.3594 2.8438 9.0469s-0.94922 6.7031-2.8438 9.0469c-1.8984 2.3438-4.3203 3.5156-7.2656 3.5156-1.668 0-3.1406-0.33594-4.4219-1s-2.4492-1.6914-3.5-3.0781v3.4531h-7.6562v-33.234h7.6562z"/>
  </symbol>
  <symbol id="c" overflow="visible">
   <path d="m0.53125-23.922h7.6562l6.4219 16.234 5.4688-16.234h7.6562l-10.062 26.188c-1.0117 2.6641-2.1953 4.5234-3.5469 5.5781-1.3438 1.0625-3.1211 1.5938-5.3281 1.5938h-4.4219v-5.0156h2.3906c1.3008 0 2.2422-0.21094 2.8281-0.625 0.59375-0.40625 1.0547-1.1484 1.3906-2.2188l0.20312-0.65625z"/>
  </symbol>
  <symbol id="e" overflow="visible">
   <path d="m26.219-30.891v6.75c-1.7617-0.78125-3.4766-1.3672-5.1406-1.7656-1.668-0.40625-3.2422-0.60938-4.7188-0.60938-1.9609 0-3.4141 0.27344-4.3594 0.8125-0.9375 0.54297-1.4062 1.3867-1.4062 2.5312 0 0.85547 0.31641 1.5234 0.95312 2 0.63281 0.46875 1.7852 0.875 3.4531 1.2188l3.5 0.70312c3.5391 0.71875 6.0625 1.8047 7.5625 3.25 1.5 1.4492 2.25 3.5117 2.25 6.1875 0 3.5234-1.0469 6.1406-3.1406 7.8594-2.0859 1.7188-5.2734 2.5781-9.5625 2.5781-2.0234 0-4.0547-0.19531-6.0938-0.57812-2.0312-0.38281-4.0625-0.95703-6.0938-1.7188v-6.9375c2.0312 1.0859 3.9922 1.9023 5.8906 2.4531 1.9062 0.54297 3.7422 0.8125 5.5156 0.8125 1.7891 0 3.1602-0.29688 4.1094-0.89062 0.95703-0.60156 1.4375-1.457 1.4375-2.5625 0-1-0.32422-1.7695-0.96875-2.3125-0.64844-0.53906-1.9375-1.0234-3.875-1.4531l-3.1875-0.70312c-3.1875-0.6875-5.5234-1.7734-7-3.2656-1.4688-1.5-2.2031-3.5156-2.2031-6.0469 0-3.1758 1.0234-5.6172 3.0781-7.3281 2.0508-1.707 5-2.5625 8.8438-2.5625 1.75 0 3.5508 0.13281 5.4062 0.39062 1.8516 0.26172 3.7695 0.65625 5.75 1.1875z"/>
  </symbol>
  <symbol id="o" overflow="visible">
   <path d="m19.422-33.234v5.0156h-4.2344c-1.0859 0-1.8398 0.19922-2.2656 0.59375-0.42969 0.38672-0.64062 1.0625-0.64062 2.0312v1.6719h6.5312v5.4688h-6.5312v18.453h-7.6406v-18.453h-3.8125v-5.4688h3.8125v-1.6719c0-2.6016 0.72266-4.5234 2.1719-5.7656 1.457-1.25 3.707-1.875 6.75-1.875z"/>
  </symbol>
  <symbol id="n" overflow="visible">
   <path d="m27.734-14.562v14.562h-7.7031v-11.156c0-2.0625-0.046875-3.4844-0.14062-4.2656-0.085937-0.78125-0.24219-1.3594-0.46875-1.7344-0.30469-0.5-0.71094-0.88281-1.2188-1.1562-0.51172-0.28125-1.0938-0.42188-1.75-0.42188-1.5938 0-2.8516 0.61719-3.7656 1.8438-0.90625 1.2305-1.3594 2.9375-1.3594 5.125v11.766h-7.6562v-23.922h7.6562v3.5c1.1445-1.3945 2.3633-2.4219 3.6562-3.0781 1.3008-0.66406 2.7383-1 4.3125-1 2.7578 0 4.8516 0.85156 6.2812 2.5469 1.4375 1.6875 2.1562 4.1523 2.1562 7.3906z"/>
  </symbol>
  <symbol id="m" overflow="visible">
   <path d="m4.0156-31.891h10.469l7.2656 17.062 7.2969-17.062h10.453v31.891h-7.7812v-23.328l-7.3438 17.203h-5.2188l-7.3438-17.203v23.328h-7.7969z"/>
  </symbol>
  <symbol id="l" overflow="visible">
   <path d="m3.6719-23.922h7.6562v23.922h-7.6562zm0-9.3125h7.6562v6.2344h-7.6562z"/>
  </symbol>
  <symbol id="k" overflow="visible">
   <path d="m27.734-14.562v14.562h-7.7031v-11.109c0-2.0938-0.046875-3.5312-0.14062-4.3125-0.085937-0.78125-0.24219-1.3594-0.46875-1.7344-0.30469-0.5-0.71094-0.88281-1.2188-1.1562-0.51172-0.28125-1.0938-0.42188-1.75-0.42188-1.5938 0-2.8516 0.61719-3.7656 1.8438-0.90625 1.2305-1.3594 2.9375-1.3594 5.125v11.766h-7.6562v-33.234h7.6562v12.812c1.1445-1.3945 2.3633-2.4219 3.6562-3.0781 1.3008-0.66406 2.7383-1 4.3125-1 2.7578 0 4.8516 0.85156 6.2812 2.5469 1.4375 1.6875 2.1562 4.1523 2.1562 7.3906z"/>
  </symbol>
  <symbol id="j" overflow="visible">
   <path d="m3.6719-33.234h7.6562v33.234h-7.6562z"/>
  </symbol>
  <symbol id="i" overflow="visible">
   <path d="m15.062-19.031c-1.6992 0-2.9961 0.60938-3.8906 1.8281-0.88672 1.2188-1.3281 2.9766-1.3281 5.2656 0 2.293 0.44141 4.0469 1.3281 5.2656 0.89453 1.2188 2.1914 1.8281 3.8906 1.8281 1.6641 0 2.9375-0.60938 3.8125-1.8281 0.88281-1.2188 1.3281-2.9727 1.3281-5.2656 0-2.2891-0.44531-4.0469-1.3281-5.2656-0.875-1.2188-2.1484-1.8281-3.8125-1.8281zm0-5.4688c4.1133 0 7.3281 1.1094 9.6406 3.3281s3.4688 5.2969 3.4688 9.2344c0 3.9297-1.1562 7.0078-3.4688 9.2344-2.3125 2.2188-5.5273 3.3281-9.6406 3.3281-4.1367 0-7.3711-1.1094-9.7031-3.3281-2.3242-2.2266-3.4844-5.3047-3.4844-9.2344 0-3.9375 1.1602-7.0156 3.4844-9.2344 2.332-2.2188 5.5664-3.3281 9.7031-3.3281z"/>
  </symbol>
 </defs>
 <g>
  <path d="m548.68 286.67-24.922-89.672 78.777-78.777c20.711-20.711 41.344-79.668 15.129-105.88-26.207-26.223-85.164-5.5898-105.88 15.129l-78.766 78.777-89.68-24.918c5.9492-18.699 1.4258-39.383-13.055-53.863-20.844-20.852-54.773-20.852-75.625 0l-22.883 22.883-71.023-19.723-44.293 44.277 75.242 45.77-20.238 20.238c-4.1836 4.1836-4.1836 10.945 0 15.129 4.1836 4.1836 10.945 4.1836 15.129 0l23.914-23.914 18.812 11.438-12.469 12.477c-4.1836 4.1836-4.1836 10.945 0 15.129 4.1719 4.1836 10.945 4.1836 15.129 0l16.16-16.16 84.641 51.492-81.969 81.969-121.01-15.129-56.641 56.648c-4.1836 4.1836-4.1836 10.945 0 15.129 4.1836 4.1836 10.945 4.1836 15.129 0l24.668-24.668 89.363 47.293c-3.5273 8.5039-6.3438 16.203-8.5312 23.125l-29.871 29.883c-0.53516 0.53516-47.672 58.203-30.258 75.625 18.848 18.848 75.102-29.715 75.637-30.25l24.254-24.246c10.562-2.4219 21.473-6.4766 30.652-10.586l45.395 85.801-24.676 24.668c-4.1836 4.1836-4.1836 10.945 0 15.129 4.1836 4.1836 10.945 4.1836 15.129 0l56.648-56.648-15.129-121 81.969-81.969 51.492 84.641-16.16 16.16c-4.1836 4.1914-4.1836 10.945 0 15.129 4.1836 4.1836 10.945 4.1836 15.129 0l12.477-12.484 11.445 18.812-23.914 23.914c-4.1836 4.1836-4.1836 10.945 0 15.129s10.945 4.1836 15.129 0l20.238-20.238 45.762 75.242 44.293-44.293-19.73-71.023 22.871-22.883c20.852-20.852 20.852-54.773 0-75.637-14.5-14.477-35.188-19.016-53.887-13.066zm-278.89-244.08c12.512-12.512 32.863-12.512 45.379 0 8.707 8.707 11.488 21.672 7.6836 33.039l-34.125-9.4766-33.25-9.2578zm-118.95 28.191 16.215-16.215 47.348 13.152-0.027343 0.027344 118.95 33.023 0.015625-0.015625 82.301 22.863-67.305 67.305zm-22.074 233.84 8.75-8.7422 95.656 11.945c-0.14844 0.22656-0.33203 0.55078-0.5 0.78906-1.5469 2.3203-3.1484 4.8477-4.8281 7.6484-0.015626 0.027344-0.042969 0.070313-0.0625 0.11328-1.6719 2.8086-3.4023 5.8711-5.1367 9.0195-0.50781 0.91797-1.0078 1.8711-1.5234 2.8164-1.2773 2.3711-2.5391 4.75-3.7969 7.2188-0.55078 1.0508-1.0781 2.082-1.6094 3.1602-1.3047 2.582-2.5625 5.1523-3.8047 7.7344-0.29688 0.60547-0.61328 1.2266-0.90234 1.8281zm65.387 146.37c-6.8789 6.8672-28.262 20.867-40.844 26.312 5.7852-12.512 19.73-33.75 25.727-41.43l81.402-81.41 22.688-7.5586-7.5586 22.688zm131.25 50.258-42.008-79.414c0.44531-0.23438 0.88281-0.5 1.3281-0.73438 2.7812-1.5039 5.5312-3.0352 8.2422-4.5859 0.98828-0.55859 1.9531-1.1289 2.9219-1.6992 2.3984-1.4102 4.7266-2.8164 7.0156-4.2344 0.85938-0.55078 1.7148-1.0586 2.5547-1.6094 6.0195-3.8164 11.48-7.5508 16.031-11.023 0.23438-0.18359 0.53516-0.39453 0.76172-0.55859l11.891 95.129zm-10.238-125.89c-0.82422 0.83203-1.8711 1.7656-3.0898 2.7734-0.40234 0.32422-0.91016 0.70703-1.3477 1.0664-0.875 0.71875-1.793 1.4336-2.8281 2.2227-0.59375 0.45312-1.2773 0.92578-1.918 1.3906-1.0312 0.76172-2.0898 1.5156-3.2383 2.3086-0.74219 0.52344-1.5312 1.0508-2.3203 1.5742-1.1719 0.8125-2.3789 1.6172-3.6484 2.4336-0.85938 0.55859-1.7422 1.1289-2.6523 1.6992-1.3047 0.83984-2.6523 1.6719-4.0352 2.5117-0.94531 0.57812-1.9062 1.1719-2.8789 1.75-1.4609 0.88281-2.957 1.7422-4.4609 2.625-0.98047 0.55078-1.9414 1.1211-2.9219 1.6523-1.7148 0.98047-3.4844 1.9414-5.25 2.8867-0.82422 0.44531-1.6367 0.90234-2.4688 1.3281-0.22656 0.13281-0.44531 0.21875-0.67188 0.35156l22.812-22.812 15.129-45.379 32.715-32.727c4.1836-4.1836 4.1836-10.945 0-15.129-4.1719-4.1836-10.945-4.1836-15.129 0l-32.715 32.727-45.379 15.129-15.672 15.672c0.28906-0.58594 0.57031-1.1992 0.86719-1.7773 0.42187-0.83984 0.83203-1.6445 1.2422-2.4688 0.94531-1.8555 1.8711-3.6562 2.8008-5.4062 0.40234-0.76953 0.82422-1.582 1.2344-2.3359 1.0586-1.9961 2.1016-3.9023 3.1133-5.7148 0.19141-0.33203 0.39453-0.70703 0.58594-1.0508 1.1719-2.082 2.3008-4.0078 3.3672-5.793 0.33203-0.55859 0.65625-1.0664 0.97266-1.6016 0.72656-1.1797 1.4258-2.3086 2.082-3.332 0.33203-0.51562 0.64844-0.99609 0.96094-1.4688 0.60547-0.91016 1.1719-1.7344 1.6992-2.4688 0.23438-0.32422 0.48047-0.67188 0.70703-0.96094 0.69141-0.91797 1.3125-1.707 1.8125-2.1875l272.29-272.25c14.262-14.27 60.566-30.195 75.625-15.129 15.078 15.066-0.85938 61.363-15.129 75.637zm244.07 103.83-120.15-197.5 67.305-67.312 22.871 82.312-0.035156 0.027343 33.031 118.95 0.027344-0.042969 13.16 47.355zm28.191-118.95-14.305 14.316-11.453-41.125-7.2891-26.234c11.367-3.8242 24.332-1.0508 33.039 7.6719 12.52 12.496 12.52 32.855 0.007812 45.371zm4.6211-282.12c-1.6016-22.262-17.895-38.551-40.152-40.145-5.8984-0.42969-11.016 4-11.426 9.8945-0.4375 5.8906 4 11.023 9.8867 11.438 12.023 0.875 19.496 8.3281 20.352 20.359 0.18359 2.6602 1.3477 5.0312 3.1055 6.7891 2.1016 2.1094 5.1016 3.332 8.3281 3.0977 5.8867-0.41406 10.332-5.5352 9.9062-11.434z"/>
  <use x="70" y="691.25" xlink:href="#p"/>
  <use x="102.109375" y="691.25" xlink:href="#h"/>
  <use x="123.683594" y="691.25" xlink:href="#b"/>
  <use x="153.355469" y="691.25" xlink:href="#a"/>
  <use x="182.878906" y="691.25" xlink:href="#d"/>
  <use x="203.792969" y="691.25" xlink:href="#b"/>
  <use x="233.464844" y="691.25" xlink:href="#g"/>
  <use x="280.011719" y="691.25" xlink:href="#f"/>
  <use x="311.328125" y="691.25" xlink:href="#c"/>
  <use x="355.078125" y="691.25" xlink:href="#e"/>
  <use x="386.589844" y="691.25" xlink:href="#d"/>
  <use x="407.503906" y="691.25" xlink:href="#b"/>
  <use x="437.175781" y="691.25" xlink:href="#o"/>
  <use x="456.210938" y="691.25" xlink:href="#a"/>
  <use x="485.730469" y="691.25" xlink:href="#n"/>
  <use x="532.109375" y="691.25" xlink:href="#m"/>
  <use x="575.644531" y="691.25" xlink:href="#l"/>
  <use x="590.640625" y="691.25" xlink:href="#k"/>
  <use x="621.789062" y="691.25" xlink:href="#a"/>
  <use x="651.3125" y="691.25" xlink:href="#c"/>
  <use x="679.828125" y="691.25" xlink:href="#j"/>
  <use x="694.824219" y="691.25" xlink:href="#i"/>
 </g>
</svg>
